<svg width="17" height="16" viewBox="0 0 17 16" fill="none" xmlns="http://www.w3.org/2000/svg">
<path d="M8.27893 4.00002V8.00002H11.2789M14.2789 8.00002C14.2789 8.78795 14.1237 9.56817 13.8222 10.2961C13.5207 11.0241 13.0787 11.6855 12.5216 12.2427C11.9644 12.7998 11.303 13.2418 10.575 13.5433C9.84708 13.8448 9.06686 14 8.27893 14C7.491 14 6.71078 13.8448 5.98283 13.5433C5.25488 13.2418 4.59344 12.7998 4.03629 12.2427C3.47914 11.6855 3.03718 11.0241 2.73565 10.2961C2.43413 9.56817 2.27893 8.78795 2.27893 8.00002C2.27893 6.40872 2.91107 4.8826 4.03629 3.75738C5.16151 2.63216 6.68763 2.00002 8.27893 2.00002C9.87023 2.00002 11.3964 2.63216 12.5216 3.75738C13.6468 4.8826 14.2789 6.40872 14.2789 8.00002Z" stroke="#5A5C63" stroke-width="1.5" stroke-linecap="round" stroke-linejoin="round"/>
</svg>
