<svg width="25" height="25" viewBox="0 0 25 25" fill="none" xmlns="http://www.w3.org/2000/svg">
<path d="M19.6038 9.58827C19.6038 9.58827 19.0608 16.4087 18.7458 19.2817C18.5958 20.6538 17.7588 21.4579 16.3878 21.4832C13.7788 21.5308 11.1668 21.5339 8.55884 21.4782C7.23984 21.4508 6.41684 20.6366 6.26984 19.2887C5.95284 16.3904 5.41284 9.58827 5.41284 9.58827" stroke="black" stroke-width="1.5" stroke-linecap="round" stroke-linejoin="round"/>
<path d="M20.9871 6.31883H4.02911" stroke="black" stroke-width="1.5" stroke-linecap="round" stroke-linejoin="round"/>
<path d="M17.7195 6.31883C16.9345 6.31883 16.2585 5.75679 16.1045 4.97804L15.8615 3.74662C15.7115 3.1785 15.2035 2.78558 14.6245 2.78558H10.3915C9.81251 2.78558 9.30451 3.1785 9.15451 3.74662L8.91151 4.97804C8.75751 5.75679 8.08151 6.31883 7.29651 6.31883" stroke="black" stroke-width="1.5" stroke-linecap="round" stroke-linejoin="round"/>
</svg>
